<?xml version="1.0" encoding="UTF-8" standalone="no"?>
<svg
   xmlns:dc="http://purl.org/dc/elements/1.1/"
   xmlns:cc="http://creativecommons.org/ns#"
   xmlns:rdf="http://www.w3.org/1999/02/22-rdf-syntax-ns#"
   xmlns:svg="http://www.w3.org/2000/svg"
   xmlns="http://www.w3.org/2000/svg"
   xmlns:sodipodi="http://sodipodi.sourceforge.net/DTD/sodipodi-0.dtd"
   xmlns:inkscape="http://www.inkscape.org/namespaces/inkscape"
   sodipodi:docname="RM_logo.svg"
   inkscape:version="1.0 (4035a4fb49, 2020-05-01)"
   id="svg8"
   version="1.1"
   viewBox="0 0 52.916666 52.916668"
   height="200"
   width="200">
  <defs
     id="defs2" />
  <sodipodi:namedview
     inkscape:snap-smooth-nodes="true"
     inkscape:snap-intersection-paths="true"
     inkscape:object-paths="true"
     inkscape:bbox-paths="false"
     inkscape:snap-bbox-edge-midpoints="false"
     inkscape:window-maximized="1"
     inkscape:window-y="-9"
     inkscape:window-x="-9"
     inkscape:window-height="991"
     inkscape:window-width="1920"
     inkscape:bbox-nodes="false"
     inkscape:snap-nodes="true"
     inkscape:snap-page="true"
     inkscape:snap-bbox="false"
     units="px"
     showgrid="false"
     inkscape:document-rotation="0"
     inkscape:current-layer="layer1"
     inkscape:document-units="mm"
     inkscape:cy="95.333562"
     inkscape:cx="125.2818"
     inkscape:zoom="1.4"
     inkscape:pageshadow="2"
     inkscape:pageopacity="0.0"
     borderopacity="1.0"
     bordercolor="#666666"
     pagecolor="#ffffff"
     id="base" />
  <metadata
     id="metadata5">
    <rdf:RDF>
      <cc:Work
         rdf:about="">
        <dc:format>image/svg+xml</dc:format>
        <dc:type
           rdf:resource="http://purl.org/dc/dcmitype/StillImage" />
        <dc:title />
      </cc:Work>
    </rdf:RDF>
  </metadata>
  <g
     id="layer1"
     inkscape:groupmode="layer"
     inkscape:label="Layer 1">
    <path
       id="path919"
       d="m 9.049914,14.04802 c -0.2838964,0 -1.3731834,0.877125 -2.4205524,1.949728 l -1.90417,1.950686 3.992487,4.01337 c 2.1959974,2.207463 3.9924934,4.239403 3.9924934,4.515514 0,0.276112 -0.765465,1.244183 -1.701033,2.150974 -0.935567,0.906787 -1.701032,1.908539 -1.701032,2.225957 0,0.317417 0.901207,1.391078 2.002888,2.386381 l 2.002891,1.809247 4.072222,-4.050395 c 2.239631,-2.227996 4.072226,-4.2718 4.072226,-4.541148 0,-0.656787 -11.751742,-12.410314 -12.40842,-12.410314 z"
       style="fill:#f1faee;stroke:none;stroke-width:2.71859;stroke-linecap:round;stroke-linejoin:round;stroke-miterlimit:4;stroke-dasharray:none;stroke-opacity:1;fill-opacity:1" />
    <path
       style="fill:#e63946;fill-opacity:1;stroke:none;stroke-width:2.71859;stroke-linecap:round;stroke-linejoin:round;stroke-miterlimit:4;stroke-dasharray:none;stroke-opacity:1"
       d="m 38.868648,9.0499143 c 0,-0.283896 -0.877125,-1.373183 -1.949728,-2.4205519 l -1.950686,-1.90417 -4.01337,3.9924869 c -2.207463,2.1959967 -4.239403,3.9924927 -4.515514,3.9924927 -0.276112,0 -1.244183,-0.765465 -2.150974,-1.701033 -0.906788,-0.935567 -1.90854,-1.701032 -2.225958,-1.701032 -0.317416,0 -1.391078,0.901207 -2.386381,2.002888 l -1.809246,2.002891 4.050395,4.072222 c 2.227996,2.239632 4.2718,4.072226 4.541148,4.072226 0.656787,0 12.410314,-11.751742 12.410314,-12.4084197 z"
       id="path925" />
    <path
       id="path927"
       d="m 43.866754,38.868648 c 0.283896,0 1.373183,-0.877125 2.420551,-1.949728 l 1.90417,-1.950686 -3.992486,-4.01337 c -2.195997,-2.207463 -3.992493,-4.239403 -3.992493,-4.515514 0,-0.276112 0.765465,-1.244183 1.701033,-2.150975 0.935567,-0.906788 1.701032,-1.90854 1.701032,-2.225958 0,-0.317416 -0.901207,-1.391078 -2.002888,-2.386381 L 39.602782,17.86679 35.53056,21.917185 c -2.239632,2.227996 -4.072226,4.271801 -4.072226,4.541149 0,0.656787 11.751742,12.410314 12.40842,12.410314 z"
       style="fill:#f1faee;stroke:none;stroke-width:2.71859;stroke-linecap:round;stroke-linejoin:round;stroke-miterlimit:4;stroke-dasharray:none;stroke-opacity:1;fill-opacity:1" />
    <path
       style="fill:#f1faee;stroke:none;stroke-width:2.71859;stroke-linecap:round;stroke-linejoin:round;stroke-miterlimit:4;stroke-dasharray:none;stroke-opacity:1;fill-opacity:1"
       d="m 14.04802,43.866754 c 0,0.283896 0.877125,1.373183 1.949728,2.420551 l 1.950686,1.90417 4.01337,-3.992486 c 2.207463,-2.195996 4.239403,-3.992493 4.515514,-3.992493 0.276112,0 1.244183,0.765465 2.150975,1.701033 0.906788,0.935567 1.908539,1.701032 2.225958,1.701032 0.317416,0 1.391078,-0.901207 2.386381,-2.002888 l 1.809246,-2.00289 -4.050395,-4.072223 c -2.227996,-2.239632 -4.271802,-4.072226 -4.541149,-4.072226 -0.656788,0 -12.410314,11.751742 -12.410314,12.40842 z"
       id="path929" />
  </g>
</svg>
